<?xml version="1.0" encoding="UTF-8"?>
<svg width="1200pt" height="1200pt" version="1.1" viewBox="0 0 1200 1200" xmlns="http://www.w3.org/2000/svg">
 <path fill="#c7c7c7" d="m1179.2 622.55c-11.949 309.43-266.61 556.66-578.98 556.66-319.99 0-579.42-259.43-579.42-579.42 0-312.37 247.23-567.03 556.66-578.98 12.5-0.48047 22.762 9.3828 22.762 21.898v96.918c0 11.707-9.1992 21.332-20.891 21.883-232.64 10.898-417.89 202.95-417.89 438.28 0 242.35 196.43 438.78 438.78 438.78 235.34 0 427.38-185.25 438.28-417.89 0.55469-11.691 10.176-20.891 21.883-20.891h96.918c12.516 0 22.379 10.262 21.898 22.762z" fill-rule="evenodd"/>
</svg>
